<svg xmlns="http://www.w3.org/2000/svg" viewBox="0 0 24 24" fill="midnightblue" width="16px" height="16px"><path 
     d="m 19.700575,4.8870789 a 1.2994249,1.8681648 0 0 1 0,3.7363296 1.149991,1.6533258 0 0 1 -0.259885,-0.07473 L 19.096342,8.3805473 A 1.1694824,1.6813483 0 0 1 18.706515,7.9228467 L 18.485613,7.4091014 a 1.2279565,1.7654157 0 0 1 -0.09746,-0.6725393 1.2994248,1.8681647 0 0 1 1.31242,-1.8494832 z m -7.79655,-1.8681648 a 1.2149622,1.746734 0 0 1 1.214963,1.7373933 1.1889738,1.7093708 0 0 1 -0.539261,1.4104644 L 12.358825,6.3162249 A 1.2994248,1.8681647 0 0 1 11.910523,6.4469965 1.1889738,1.7093708 0 0 1 11.455724,6.3068841 L 11.325781,6.1947942 a 1.1889738,1.7093708 0 0 1 -0.649712,-1.4945317 1.2084651,1.7373932 0 0 1 1.227956,-1.70003 z M 9.3051756,12.256989 11.286799,7.6613036 a 1.8841661,2.7088389 0 0 0 1.234453,0 l 1.981623,4.5770034 3.690367,-3.2973102 a 2.0855769,2.9984045 0 0 0 0.376833,0.4203367 L 16.815852,16.936742 H 6.9986966 L 5.2444731,9.3613335 A 2.0855769,2.9984045 0 0 0 5.6213063,8.9409968 Z M 4.1074763,5.1766445 A 1.1045111,1.5879401 0 0 1 5.2184846,6.7739253 1.1304997,1.6253033 0 0 1 5.1405191,7.3437156 L 4.9521024,7.7827343 A 1.1045111,1.5879401 0 1 1 4.1074763,5.1766445 Z M 16.861332,21 H 6.966211 v -2.036299 h 9.895121 z"
/></svg>
